<?xml version="1.0" encoding="iso-8859-1"?>
<!-- Generator: Adobe Illustrator 18.1.1, SVG Export Plug-In . SVG Version: 6.00 Build 0)  -->
<svg version="1.1" id="Capa_1" xmlns="http://www.w3.org/2000/svg" xmlns:xlink="http://www.w3.org/1999/xlink" x="0px" y="0px"
	 viewBox="0 0 612.002 612.002" style="enable-background:new 0 0 612.002 612.002;" xml:space="preserve">
<g>
	<g>
		<path d="M349.457,5.595c-83.85,0-158.466,39.362-206.531,100.555c10.804,8.218,19.77,19.126,27.009,29.602
			c40.681-55.016,105.99-90.775,179.522-90.775c123.055,0,223.164,100.115,223.164,223.164c0,89.692-53.205,167.136-129.697,202.574
			c8.618,10.371,16.166,21.916,20.459,34.032c87.94-42.421,148.62-132.428,148.62-236.606
			C612.003,123.143,494.461,5.595,349.457,5.595z"/>
		<path d="M405.15,469.257c-14.899-13.521-46.7-39.723-70.697-38.942c-7.857,0.256-14.696,3.361-20.905,7.161v-0.007
			c0,0-0.276,0.177-0.735,0.473c-1.385,0.866-2.75,1.772-4.063,2.711l0.013,0.013c-4.299,2.986-11.06,7.922-18.693,14.466
			l-0.072-0.072c-0.249,0.21-0.512,0.433-0.768,0.637c-1.588,1.359-3.203,2.875-4.831,4.45c-0.059,0.053-0.118,0.092-0.158,0.144
			c-0.092,0.072-0.138,0.144-0.217,0.223c-8.913,8.671-18.47,19.402-30.678,20.531c-22.441,2.054-43.97-16.153-55.581-26.799
			c-26.156-23.957-49.733-53.08-68.413-85.36c-8.881-15.326-19.881-36.428-12.983-57.662c3.426-10.607,13.711-16.764,23.124-22.914
			c0.026-0.007,0.033-0.02,0.046-0.02c7.01-4.155,15.549-10.869,21.352-15.654c9.891-8.001,21.096-18.05,22.901-32.648
			c2.691-21.417-11.86-50.612-23.288-69.955c-10.259-17.354-28.06-47.028-49.562-50.586c-9.983-1.654-18.326,2.625-25.729,8.388
			c-5.008,3.682-18.87,14.072-30.751,24.627c-0.4,0.335-0.788,0.676-1.168,1.017c-1.825,1.654-3.63,3.308-5.31,4.929
			c0,0.02,0,0.026,0,0.026c-26.609,25.736-48.249,62-47.98,112.678c0.387,69.653,34.164,124.611,64.704,167.858
			c32.365,45.834,74.327,92.836,123.449,126.383c27.377,18.687,54.734,33.809,95.455,39.388c44.593,6.117,76.42-5.231,104.165-24.22
			c0.164-0.112,0.309-0.171,0.466-0.276c15.753-10.508,28.716-21.325,36.139-27.849c2.166-1.798,4.306-3.695,6.308-5.73
			c0.249-0.236,0.433-0.414,0.433-0.414l-0.02-0.026c4.306-4.476,8.27-9.603,9.445-16.403
			C444.177,509.006,420.049,482.83,405.15,469.257z"/>
		<path d="M303.886,254.022c-3.17,4.056-7.345,8.401-12.51,13.035c-5.179,4.634-11.552,10.003-19.12,16.107
			c-8.5,6.872-15.641,13.127-21.437,18.765c-5.796,5.638-10.233,10.777-13.318,15.411c-6.649,10.042-9.97,22.133-9.97,36.264H345.25
			v-29.431h-74.615c2.008-2.317,5.08-5.343,9.215-9.097c4.129-3.741,9.045-8.054,14.768-12.917
			c9.655-8.113,17.82-15.392,24.495-21.844c6.688-6.445,11.683-11.992,15.004-16.626c3.551-5.021,6.216-10.331,8.001-15.93
			c1.772-5.599,2.658-11.683,2.658-18.247c0-7.181-1.234-13.843-3.708-19.986c-2.474-6.144-6.071-11.473-10.777-15.989
			c-4.719-4.516-10.541-8.067-17.499-10.659c-6.951-2.586-14.873-3.879-23.747-3.879c-8.27,0-15.818,1.359-22.645,4.056
			c-6.846,2.704-12.766,6.531-17.787,11.467c-5.028,4.942-9.058,10.928-12.11,17.958c-3.052,7.03-4.923,14.873-5.618,23.518h32.326
			c0.309-5.021,1.214-9.445,2.73-13.265c1.503-3.827,3.374-7.01,5.612-9.557c2.238-2.553,4.818-4.463,7.765-5.737
			c2.927-1.273,6.025-1.91,9.268-1.91c7.719,0,13.672,2.068,17.84,6.196c4.174,4.135,6.255,9.905,6.255,17.321
			c0,4.713-0.676,9.038-2.022,12.976C309.307,245.969,307.049,249.966,303.886,254.022z"/>
		<path d="M462.384,353.606v-38.581h21.778v-28.499h-21.778V179.584h-24.679L361.81,290.116v24.909h69.049v38.581H462.384z
			 M396.341,286.519l34.525-51.557v51.557H396.341z"/>
	</g>
</g>
<g>
</g>
<g>
</g>
<g>
</g>
<g>
</g>
<g>
</g>
<g>
</g>
<g>
</g>
<g>
</g>
<g>
</g>
<g>
</g>
<g>
</g>
<g>
</g>
<g>
</g>
<g>
</g>
<g>
</g>
</svg>
