<?xml version="1.0" encoding="iso-8859-1"?>
<!-- Generator: Adobe Illustrator 19.0.0, SVG Export Plug-In . SVG Version: 6.00 Build 0)  -->
<svg version="1.1" id="Layer_1" xmlns="http://www.w3.org/2000/svg" xmlns:xlink="http://www.w3.org/1999/xlink" x="0px" y="0px"
	 viewBox="0 0 512 512" style="enable-background:new 0 0 512 512;" xml:space="preserve">
<path style="fill:#FFCD54;" d="M0,256.006C0,397.402,114.606,512.004,255.996,512C397.394,512.004,512,397.402,512,256.006
	C512.009,114.61,397.394,0,255.996,0C114.606,0,0,114.614,0,256.006z"/>
<path style="fill:#F4BA41;" d="M512,256.005c0.001-9.026-0.479-17.939-1.39-26.723c-0.025-0.025-0.048-0.049-0.073-0.073
	C510.05,228.666,365.456,84.12,364.944,83.616C352.355,69.582,331.197,69.3,329.958,69.3h-0.019c-1.325,0-2.626,0.33-3.79,0.957
	c-14.359,7.737-25.443,35.617-30.557,50.751c-7.401-2.225-15.561-2.788-23.536-2.452c-0.084-0.081-0.135-0.19-0.224-0.267
	c-0.217-0.188-0.441-0.317-0.657-0.497c-0.284-0.345-46.019-46.222-46.357-46.517c-20.763-18.075-46.855-0.964-57.75,10.621
	c-1.807,1.929-2.556,4.609-1.999,7.187l13.129,61.004l-16.26,10.222c-0.658,0.415-1.254,0.925-1.767,1.505
	c-0.051,0.063-0.188,0.22-0.403,0.478c-23.358-21.343-42.271-32.951-56.289-34.534c-3.551-0.361-6.953,1.606-8.317,4.923
	l-15.127,36.683c-1.377,3.326-0.25,7.017,2.477,9.214c0.415,0.58,0.945,1.057,1.517,1.517c0.416,0.58,49.461,49.571,50.023,50.028
	c-2.547,26.499,1.917,54.393,13.476,83.204c8.886,22.173,22.143,40.225,37.597,55.003c0.509,0.498,134.457,134.479,134.97,134.97
	c0.161,0.158,0.32,0.318,0.478,0.478C430.7,475.161,512,375.092,512,256.005z"/>
<path style="fill:#F4F6F9;" d="M431.259,337.599c-5.761-83.131-15.879-166.065-69.328-188.271l-8.861-7.681
	c3.018-12.212,12.478-32.889,16.397-40.876c1.43-2.641,2.191-6.913-0.086-11.052c-11.162-20.143-38.022-20.418-39.422-20.418h-0.019
	c-1.325,0-2.626,0.33-3.79,0.956c-14.359,7.737-25.442,35.616-30.557,50.752c-19.297-5.801-43.788-0.431-56.563,3.261
	l-11.675-48.807c-0.388-1.63-1.278-3.088-2.535-4.186c-20.763-18.075-46.857-0.964-57.751,10.621
	c-1.807,1.929-2.556,4.609-1.999,7.187l13.129,61.004l-16.26,10.221c-0.658,0.415-1.254,0.925-1.767,1.505
	c-0.051,0.063-0.188,0.22-0.403,0.478c-23.358-21.343-42.271-32.951-56.289-34.534c-3.551-0.361-6.953,1.606-8.316,4.923
	l-15.127,36.683c-1.545,3.731-0.063,8.034,3.449,10.033c0.302,0.173,29.178,16.695,52.476,36.996
	c-5.89,30.522-2.002,63.104,11.569,96.933c35.166,87.747,138.523,111.332,177.43,120.212c2.83,0.643,5.267,1.199,7.243,1.685
	c6.361,1.575,12.862,3.566,19.152,5.494c13.086,4.005,25.744,7.885,36.823,7.885c7.948,0,15.081-1.99,20.975-7.367
	C426.289,425.574,436.33,410.784,431.259,337.599z M398.123,429.564c-7.137,6.506-24.102,1.309-42.067-4.193
	c-6.498-1.99-13.211-4.052-20.006-5.73c-2.053-0.51-4.581-1.089-7.521-1.756c-36.662-8.364-134.063-30.592-166.1-110.532
	c-13.035-32.481-16.342-63.457-9.833-92.082c0.643-2.821-0.283-5.769-2.422-7.713c-18.89-17.213-41.871-31.94-52.653-38.5
	l9.872-23.937c11.597,4.115,28.605,16.483,47.981,35.044c1.728,1.662,4.118,2.493,6.486,2.179c2.379-0.274,4.507-1.606,5.808-3.614
	c1.713-2.65,3.132-4.53,3.919-5.525l19.913-12.517c2.857-1.795,4.284-5.189,3.574-8.481l-13.36-62.062
	c5.972-5.204,19.811-15.214,30.69-8.183l13.027,54.467c0.533,2.234,2.002,4.13,4.029,5.213c2.022,1.074,4.417,1.238,6.576,0.447
	c11.209-4.162,43.959-12.862,60.569-3.331c2.14,1.231,4.719,1.395,6.992,0.486c2.281-0.917,4.017-2.837,4.707-5.197
	c4.864-16.656,15.163-41.628,23.836-48.557c4.769,0.438,16.221,2.289,21.994,10.119c-3.876,8.058-15.978,34.049-17.777,48.055
	c-0.345,2.665,0.67,5.322,2.7,7.086l13.372,11.593c0.693,0.595,1.482,1.074,2.332,1.411c45.869,17.957,55.275,99.724,60.486,174.962
	C420.147,409.443,410.515,418.245,398.123,429.564z"/>
<g>
</g>
<g>
</g>
<g>
</g>
<g>
</g>
<g>
</g>
<g>
</g>
<g>
</g>
<g>
</g>
<g>
</g>
<g>
</g>
<g>
</g>
<g>
</g>
<g>
</g>
<g>
</g>
<g>
</g>
</svg>
