<?xml version="1.0" encoding="iso-8859-1"?>
<!-- Generator: Adobe Illustrator 16.0.0, SVG Export Plug-In . SVG Version: 6.00 Build 0)  -->
<!DOCTYPE svg PUBLIC "-//W3C//DTD SVG 1.1//EN" "http://www.w3.org/Graphics/SVG/1.1/DTD/svg11.dtd">
<svg version="1.1" id="Capa_1" xmlns="http://www.w3.org/2000/svg" xmlns:xlink="http://www.w3.org/1999/xlink" x="0px" y="0px"
	 width="292.921px" height="292.922px" viewBox="0 0 292.921 292.922" style="enable-background:new 0 0 292.921 292.922;"
	 xml:space="preserve">
<g>
	<path d="M265.41,65.464H27.509C12.319,65.464,0,77.778,0,92.968V199.95c0,15.192,12.313,27.507,27.509,27.507H265.41
		c15.192,0,27.512-12.314,27.512-27.507V92.968C292.921,77.778,280.613,65.464,265.41,65.464z M212.67,172.869
		c-0.264,0-0.491-0.078-0.751-0.083v0.187H79.505v-0.187c-14.227-0.404-25.652-12.014-25.652-26.325
		c0-14.58,11.819-26.401,26.396-26.401c14.576,0,26.4,11.822,26.4,26.401c0,3.547-0.722,6.918-1.994,10.009h83.611
		c-1.273-3.091-1.999-6.462-1.999-10.009c0-14.58,11.822-26.401,26.403-26.401c14.582,0,26.403,11.822,26.403,26.401
		C239.074,161.031,227.252,172.869,212.67,172.869z"/>
</g>
<g>
</g>
<g>
</g>
<g>
</g>
<g>
</g>
<g>
</g>
<g>
</g>
<g>
</g>
<g>
</g>
<g>
</g>
<g>
</g>
<g>
</g>
<g>
</g>
<g>
</g>
<g>
</g>
<g>
</g>
</svg>
